<svg id="Layer_1" height="512" viewBox="0 0 128 128" width="512" xmlns="http://www.w3.org/2000/svg" xmlns:xlink="http://www.w3.org/1999/xlink" data-name="Layer 1"><linearGradient id="linear-gradient" gradientUnits="userSpaceOnUse" x1="111.385" x2="12.584" y1="119.461" y2="20.659"><stop offset="0" stop-color="#64e0db"/><stop offset="1" stop-color="#ffcdbe"/></linearGradient><path d="m38.615 19.339a1.749 1.749 0 0 1 2.324-.85q.576.267 1.14.546a1.75 1.75 0 1 1 -1.551 3.137q-.526-.261-1.063-.51a1.75 1.75 0 0 1 -.85-2.323zm18.165 44.509-14.866-15.596a1.75 1.75 0 0 0 -2.533 2.415l4.537 4.76a16.738 16.738 0 0 1 -18.237-3.62c-7.216-7.216-13.8-25.5-7.814-31.481 2.626-2.627 7.971-3.075 14.659-1.232a1.75 1.75 0 1 0 .93-3.374c-8.056-2.22-14.472-1.463-18.065 2.131-8.266 8.266.241 28.858 7.814 36.431a20.236 20.236 0 0 0 23.277 3.836l6.556 6.882-41.548 39.6a8.424 8.424 0 0 0 5.81 14.52h.1a8.359 8.359 0 0 0 6-2.611l35.41-37.15a1.75 1.75 0 0 0 -2.533-2.415l-35.41 37.15a4.886 4.886 0 0 1 -3.5 1.526 4.819 4.819 0 0 1 -3.541-1.441 4.924 4.924 0 0 1 .084-7.046l41.549-39.6 33.859 35.523a1.75 1.75 0 0 0 2.533-2.415zm15.72 1.152 13.658-14.333a1.75 1.75 0 0 0 -2.533-2.415l-13.659 14.329-4.661-4.443 14.441-13.765a1.75 1.75 0 1 0 -2.414-2.533l-2.76 2.63a11.9 11.9 0 0 1 3.4-11.287l19.89-18.946a.426.426 0 0 1 .59.008.421.421 0 0 1 .012.585l-16.122 17.4a3.96 3.96 0 0 0 5.595 5.6l17.4-16.123a.421.421 0 0 1 .586.011l.362.363a.421.421 0 0 1 .012.585l-16.122 17.4a3.96 3.96 0 0 0 5.595 5.6l17.4-16.123a.422.422 0 0 1 .593.6l-18.949 19.887a11.774 11.774 0 0 1 -4.737 3.048 1.75 1.75 0 1 0 1.139 3.31 15.454 15.454 0 0 0 6.134-3.944l18.95-19.894a3.923 3.923 0 0 0 -5.507-5.583l-17.404 16.123a.46.46 0 0 1 -.649-.65l16.122-17.4a3.909 3.909 0 0 0 -.1-5.44l-.362-.362a3.911 3.911 0 0 0 -5.439-.1l-17.4 16.123a.46.46 0 0 1 -.649-.65l16.122-17.4a3.922 3.922 0 0 0 -5.586-5.511l-19.895 18.949a15.4 15.4 0 0 0 -3.823 16.53l-8.961 8.541-7.119-6.785a20.237 20.237 0 0 0 -3.828-23.27 29.633 29.633 0 0 0 -4.3-3.483 1.75 1.75 0 1 0 -1.965 2.9 26.14 26.14 0 0 1 3.794 3.062 16.738 16.738 0 0 1 3.62 18.237l-4.764-4.541a1.75 1.75 0 1 0 -2.414 2.533l65.841 62.759a4.924 4.924 0 0 1 -3.395 8.488h-.061a4.889 4.889 0 0 1 -3.507-1.526l-5.953-6.246a1.75 1.75 0 0 0 -2.533 2.415l5.953 6.246a8.359 8.359 0 0 0 6 2.611h.1a8.424 8.424 0 0 0 5.809-14.521z" fill="url(#linear-gradient)"/></svg>