<svg height="480pt" viewBox="-6 0 480 480.00011" width="480pt" xmlns="http://www.w3.org/2000/svg" xmlns:xlink="http://www.w3.org/1999/xlink"><linearGradient id="a" gradientUnits="userSpaceOnUse" x1="84.799988" x2="439.407988" y1="411.048108" y2="56.440108"><stop offset="0" stop-color="#41dfd0"/><stop offset="1" stop-color="#ee83ef"/></linearGradient><path d="m160.207031 154.113281-129.703125-35.015625c-2.082031-.582031-4.238281-.867187-6.398437-.859375-12.078125-.050781-22.3125 8.878907-23.898438 20.851563-1.585937 11.972656 5.972657 23.257812 17.648438 26.351562l126.921875 34.261719c.488281 39.320313 26.976562 73.558594 64.917968 83.898437l123.609376 33.359376c22.53125 6.109374 46.566406 3.003906 66.804687-8.625 20.238281-11.632813 35.023437-30.835938 41.089844-53.375l3.121093-11.601563c3.238282-12-9.382812-24.503906-39.746093-39.390625-31.398438-14.621094-64.066407-26.34375-97.597657-35.023438-13.054687-3.539062-114.488281-30.152343-146.769531-14.832031zm-138.152343-4.144531c-4.265626-1.164062-6.777344-5.566406-5.613282-9.832031 1.164063-4.265625 5.566406-6.78125 9.832032-5.617188l123.574218 33.359375-2.09375 7.722656c-.707031 2.605469-1.234375 5.222657-1.699218 7.839844zm315.417968 151.511719-123.601562-33.359375c-21.75-5.910156-39.464844-21.691406-47.839844-42.617188 16.613281 9.542969 34.03125 17.609375 52.058594 24.097656.902344.335938 1.859375.507813 2.820312.511719 3.867188 0 7.179688-2.765625 7.871094-6.570312.691406-3.804688-1.433594-7.558594-5.054688-8.917969-30.460937-11.480469-53.285156-23.265625-62.597656-32.34375-.089844-.089844-.21875-.113281-.3125-.199219-.261718-5.445312.097656-10.902343 1.070313-16.265625 18.695312 13.535156 39.324219 24.179688 61.183593 31.574219l3.355469 1.25c2.078125.777344 4.148438 1.539063 6.207031 2.28125 13.375 4.871094 27.742188 9.597656 42.734376 13.902344 6.113281 1.792969 10.664062 3.046875 12.800781 3.625 5.332031 1.4375 10.625 2.800781 15.871093 4.085937 1.21875.304688 2.402344.585938 3.632813.871094 4.265625 1.035156 8.496094 2.019531 12.6875 2.953125l2.847656.617187c4.738281 1.066407 9.410157 2.035157 14.015625 2.902344.328125.058594.648438.128906.96875.191406 15.664063 3.027344 30.402344 5.242188 43.671875 6.546876l.417969.039062c2.648438.253906 5.3125.519531 7.832031.695312 1.519531.113282 2.910157.167969 4.367188.25h.421875c4 .222657 7.90625.375 11.433594.375 5.84375.054688 11.683593-.378906 17.457031-1.296874-12.816407 35.046874-50.285157 54.492187-86.320313 44.800781zm24.136719-63.601563c-4.066406-.621094-8.195313-1.292968-12.449219-2.054687l-2.207031-.382813c-5.453125-1-11.023437-2.101562-16.722656-3.304687l-1.414063-.304688c-5.082031-1.089843-10.265625-2.273437-15.480468-3.519531l-3.472657-.800781c-5.785156-1.40625-11.625-2.886719-17.503906-4.480469-5.878906-1.589844-11.671875-3.246094-17.390625-4.949219-1.144531-.339843-2.25-.683593-3.375-1.019531-5.136719-1.550781-10.203125-3.132812-15.136719-4.796875l-1.433593-.464844c-5.503907-1.8125-10.855469-3.664062-16.054688-5.550781l-2.199219-.800781c-4-1.472657-7.882812-2.960938-11.671875-4.457031-.867187-.335938-1.746094-.679688-2.59375-1.023438 24.253906 3.730469 48.273438 8.847656 71.945313 15.320312 23.714843 6.328126 47.046875 14.011719 69.878906 23.015626zm66.804687 1.175782c-6.042968 2.320312-12.519531 3.308593-18.980468 2.890624-35.164063-18.320312-72.355469-32.457031-110.808594-42.113281-38.066406-11.09375-77.320312-17.625-116.929688-19.449219-5.789062-2.898437-10.890624-7.007812-14.960937-12.046874 8.875-5.480469 58.867187-4.800782 136.066406 16.054687 77.199219 20.859375 120.726563 45.472656 125.625 54.664063zm-154.214843 20.480468c-.996094 3.410156-4.121094 5.75-7.671875 5.753906-.761719-.003906-1.523438-.117187-2.253906-.328124-5.265626-1.554688-10.425782-3.132813-15.480469-4.738282-4.210938-1.335937-6.539063-5.835937-5.199219-10.046875 1.335938-4.210937 5.835938-6.539062 10.046875-5.199219 4.933594 1.566407 9.980469 3.113282 15.144531 4.632813 4.238282 1.242187 6.667969 5.6875 5.421875 9.925781zm46.601562 11.503906c-.816406 3.652344-4.050781 6.25-7.792969 6.257813-.589843 0-1.175781-.066406-1.75-.191406-5.175781-1.152344-10.429687-2.390625-15.761718-3.714844-4.21875-1.121094-6.757813-5.417969-5.710938-9.652344 1.050782-4.238281 5.304688-6.851562 9.558594-5.875 5.207031 1.289063 10.351562 2.496094 15.390625 3.625 4.316406.960938 7.035156 5.238281 6.074219 9.550781zm-37.074219-243.039062c.046876 10.773438 6.265626 20.566406 16 25.183594v26.816406c0 4.417969 3.582032 8 8 8h32c4.417969 0 8-3.582031 8-8v-26.800781c11.839844-5.585938 18.210938-18.640625 15.332032-31.410157-2.882813-12.769531-14.242188-21.8242182-27.332032-21.789062h-24c-15.460937 0-28 12.535156-28 28zm32 44v-16h16v16zm32-44c0 6.628906-5.371093 12-12 12h-24c-6.625 0-12-5.371094-12-12s5.375-12 12-12h24c6.628907 0 12 5.371094 12 12zm88.144532 75.542969c.210937-2.113281-.421875-4.222657-1.757813-5.871094l-25.273437-31.007813c-1.34375-1.640624-3.28125-2.683593-5.390625-2.894531-2.113281-.246093-4.234375.390625-5.863281 1.75l-31 25.273438c-3.429688 2.789062-3.945313 7.828125-1.152344 11.253906l25.269531 31.007813c1.339844 1.644531 3.277344 2.6875 5.386719 2.90625.265625.015624.53125.015624.796875 0 1.84375 0 3.628906-.636719 5.058593-1.800782l31.007813-25.265625c1.640625-1.328125 2.691406-3.25 2.917969-5.351562zm-37.816406 13.199219-15.199219-18.597657 18.59375-15.199219 15.199219 18.605469zm-114.328126-44.742188c0-17.671875-14.324218-32-32-32-17.671874 0-32 14.328125-32 32s14.328126 32 32 32c17.675782 0 32-14.328125 32-32zm-32 16c-8.835937 0-16-7.164062-16-16s7.164063-16 16-16c8.839844 0 16 7.164062 16 16s-7.160156 16-16 16zm-8 32h16v16h-16zm88 0h-16v-16h16zm-16 16h16v24h-16zm104 24h-16v-16h16zm-16 16h16v16h-16zm-230.847656 172.113281 13.984375 7.773438-17.785156 32-14.007813-7.773438zm-27.199218 48.925781 13.984374 7.777344c-7.070312 12.742188-8.476562 27.867188-3.878906 41.695313l7.65625 22.960937-15.203125 5.054688-7.652343-22.960938 7.582031-2.527344-7.59375 2.527344c-5.988281-18.089844-4.128907-37.867187 5.128906-54.527344zm205.511718 77.488282 7.640625-22.960938c6.015625-18.082031 4.175781-37.859375-5.0625-54.527344l-27.203125-48.925781c-1.792968-3.136719-5.460937-4.679687-8.957031-3.773437-3.496094.910156-5.949219 4.050781-5.984375 7.660156v44c0 1.441406-.066406 2.878906-.183594 4.320312-1.683594-6.09375-4.085937-11.96875-7.152344-17.496093l-32.625-58.710938c-1.769531-3.1875-5.472656-4.773437-9-3.859375-3.527343.917969-5.992187 4.101563-5.992187 7.746094v52.800781c-.027344 13.84375-4.515625 27.308594-12.800781 38.398438-2.960938 3.984375-5.542969 8.238281-7.710938 12.703125-1-1.597656-2.015625-3.199219-3.152344-4.6875-6.714843-9.019532-10.363281-19.953125-10.398437-31.199219v-44.015625c-.003906-3.644531-2.46875-6.824219-5.996094-7.738281-3.527343-.910157-7.226562.675781-8.996093 3.859375l-27.203126 48.941406c-9.242187 16.660156-11.085937 36.433594-5.078124 54.511719l7.679687 22.960937c1.089844 3.261719 4.140625 5.460938 7.578125 5.464844h153.03125c3.445312 0 6.503906-2.203125 7.589844-5.472656zm-160.710937-28c-4.582031-13.824219-3.175781-28.9375 3.878906-41.679688l12.234375-21.96875v13.121094c.050781 14.703125 4.816406 29.003906 13.597656 40.800781 4.105469 5.433594 7.042969 11.65625 8.632813 18.28125-.429688 2.949219-.699219 5.921875-.800781 8.902344h-31.671876zm53.472656 17.472656c.664063-12.734375 5.089844-24.984375 12.71875-35.199219 10.359375-13.863281 15.96875-30.695312 16-48v-21.9375l17.601563 31.730469c7.460937 13.476562 9.820312 29.195312 6.648437 44.269531-.792969 3.804688 1.261719 7.625 4.871094 9.0625 3.605469 1.4375 7.726562.074219 9.765625-3.230469l.800781-1.390624c.480469-.867188 1.015625-1.703126 1.601563-2.503907 8.796874-11.785156 13.566406-26.09375 13.597656-40.800781v-13.128906l12.25 21.929687c7.0625 12.75 8.464844 27.871094 3.871094 41.703125l-5.824219 17.496094zm116.175781-115.886719 10.734375 19.320313-13.984375 7.773437-10.734375-19.320312zm35.742188 84.144531-16-.515624c.296875-9.398438-1.953125-18.703126-6.519532-26.925782l-8.449218-15.199218 13.984375-7.769532 8.449219 15.199219c5.976562 10.75 8.925781 22.917969 8.535156 35.210937zm-20.941406 21.214844 15.199218 5.054688-5.335937 16-15.199219-5.054688zm-179.859376-113.898437-14.316406-7.148438 8-16 14.316406 7.148438zm251.203126-225.230469c6.578124-6.628906 7.582031-16.972656 2.398437-24.742188l-3.449219-5.183593 13.3125-8.867188 3.449219 5.167969c9.378906 14.128906 7.519531 32.90625-4.449219 44.921875zm0 0" fill="url(#a)"/></svg>